<?xml version="1.0" standalone="no"?>
<!DOCTYPE svg PUBLIC "-//W3C//DTD SVG 20010904//EN"
 "http://www.w3.org/TR/2001/REC-SVG-20010904/DTD/svg10.dtd">
<svg version="1.0" xmlns="http://www.w3.org/2000/svg"
 width="400.000000pt" height="250.000000pt" viewBox="0 0 400.000000 250.000000"
 preserveAspectRatio="xMidYMid meet">
<metadata>
Created by potrace 1.15, written by Peter Selinger 2001-2017
</metadata>
<g transform="translate(0.000000,250.000000) scale(0.100000,-0.100000)"
fill="#000000" stroke="none">
<path d="M0 1250 l0 -1250 2000 0 2000 0 0 1250 0 1250 -2000 0 -2000 0 0
-1250z m1680 230 l0 -360 -55 0 -55 0 0 40 c0 39 -15 54 -26 25 -10 -25 -104
-65 -155 -65 -95 0 -171 43 -214 122 -71 130 -26 312 90 368 95 46 196 36 266
-27 l39 -35 0 146 0 146 55 0 55 0 0 -360z m1340 211 l0 -149 38 38 c60 60
159 77 237 41 92 -42 105 -82 105 -316 l0 -185 -54 0 -55 0 -3 175 c-3 173 -3
175 -29 201 -48 47 -136 49 -186 2 -45 -41 -53 -76 -53 -233 l0 -145 -55 0
-55 0 0 360 0 360 55 0 55 0 0 -149z m-2230 -471 l0 -360 -55 0 -55 0 0 360 0
360 55 0 55 0 0 -360z m1317 13 c33 -87 80 -211 104 -275 24 -64 45 -116 47
-114 1 2 49 124 105 272 l102 269 58 3 c31 2 57 -1 57 -6 0 -5 -60 -157 -133
-338 l-133 -329 -59 -3 -60 -3 -127 323 c-70 178 -131 331 -134 341 -5 15 1
17 54 17 l60 0 59 -157z"/>
<path d="M1322 1520 c-47 -29 -76 -98 -69 -161 8 -61 19 -82 63 -116 29 -22
47 -27 88 -27 96 0 158 63 158 163 0 56 -19 99 -62 135 -41 34 -127 37 -178 6z"/>
</g>
</svg>
