<?xml version="1.0" standalone="no"?>
<!DOCTYPE svg PUBLIC "-//W3C//DTD SVG 20010904//EN"
 "http://www.w3.org/TR/2001/REC-SVG-20010904/DTD/svg10.dtd">
<svg version="1.0" xmlns="http://www.w3.org/2000/svg"
 width="500.000000pt" height="500.000000pt" viewBox="0 0 500.000000 500.000000"
 preserveAspectRatio="xMidYMid meet">
<metadata>
Created by potrace 1.15, written by Peter Selinger 2001-2017
</metadata>
<g transform="translate(0.000000,500.000000) scale(0.100000,-0.100000)"
fill="#000000" stroke="none">
<path d="M0 2500 l0 -2500 2500 0 2500 0 0 2500 0 2500 -2500 0 -2500 0 0
-2500z m2280 -25 l0 -345 -55 0 -55 0 0 42 0 42 -27 -27 c-81 -76 -226 -74
-311 6 -89 82 -95 262 -14 359 75 89 231 102 317 26 l35 -30 0 136 0 136 55 0
55 0 0 -345z m1490 164 l0 -142 34 34 c40 39 85 57 141 58 89 2 147 -34 179
-111 13 -29 16 -77 16 -213 l0 -175 -55 0 -55 0 0 163 c0 179 -4 193 -62 223
-37 19 -96 14 -134 -11 -49 -32 -64 -85 -64 -237 l0 -138 -55 0 -55 0 0 345 0
345 55 0 55 0 0 -141z m-2610 -364 l0 -345 -55 0 -55 0 0 345 0 345 55 0 55 0
0 -345z m1709 -132 c53 -138 99 -254 102 -257 3 -3 50 111 105 254 l99 260 57
0 58 0 -19 -47 c-10 -27 -69 -173 -131 -325 l-113 -278 -57 0 -56 0 -132 325
-131 326 61 -3 61 -3 96 -252z"/>
<path d="M1975 2533 c-32 -8 -74 -42 -90 -73 -23 -45 -19 -130 8 -171 64 -96
203 -90 255 11 27 55 28 101 1 156 -30 63 -102 95 -174 77z"/>
</g>
</svg>
