<?xml version="1.0" standalone="no"?>
<!DOCTYPE svg PUBLIC "-//W3C//DTD SVG 20010904//EN"
 "http://www.w3.org/TR/2001/REC-SVG-20010904/DTD/svg10.dtd">
<svg version="1.0" xmlns="http://www.w3.org/2000/svg"
 width="500.000000pt" height="500.000000pt" viewBox="0 0 500.000000 500.000000"
 preserveAspectRatio="xMidYMid meet">
<metadata>
Created by potrace 1.15, written by Peter Selinger 2001-2017
</metadata>
<g transform="translate(0.000000,500.000000) scale(0.100000,-0.100000)"
fill="#000000" stroke="none">
<path d="M0 2500 l0 -2500 2500 0 2500 0 0 2500 0 2500 -2500 0 -2500 0 0
-2500z m2280 -25 l0 -345 -55 0 -55 0 0 36 0 36 -34 -30 c-40 -35 -114 -54
-172 -45 -150 23 -238 179 -190 337 20 67 61 114 120 142 84 39 185 28 245
-27 l31 -28 0 135 0 134 55 0 55 0 0 -345z m1490 155 l0 -141 33 34 c72 71
215 76 280 10 50 -53 57 -87 57 -278 l0 -175 -55 0 -55 0 0 158 c0 138 -2 161
-20 189 -24 41 -82 59 -138 43 -81 -21 -102 -74 -102 -255 l0 -135 -55 0 -55
0 0 345 0 345 55 0 55 0 0 -140z m-2610 -365 l0 -345 -55 0 -55 0 0 345 0 345
55 0 55 0 0 -345z m1710 -122 c53 -139 98 -254 100 -257 3 -2 50 112 104 255
l99 259 59 0 58 0 -13 -32 c-8 -18 -67 -165 -132 -326 l-118 -293 -59 3 -58 3
-129 323 -129 323 61 -3 61 -3 96 -252z"/>
<path d="M1976 2530 c-125 -38 -142 -235 -26 -295 39 -20 115 -19 150 2 41 24
70 82 70 140 0 67 -26 113 -80 141 -47 23 -67 26 -114 12z"/>
</g>
</svg>
